<?xml version="1.0" encoding="UTF-8" standalone="no"?>
<svg
   aria-label="scholar"
   role="img"
   version="1.1"
   viewBox="0 0 512 512"
   id="svg1"
   width="512"
   height="512"
   xmlns="http://www.w3.org/2000/svg"
   xmlns:svg="http://www.w3.org/2000/svg">
  <defs
     id="defs1" />
  <g
     id="icon"
     transform="matrix(29.340973,0,0,29.340973,-81.42119,-114.97659)"
     style="stroke:none;stroke-width:0;stroke-dasharray:none">
    <path
       d="M 11,4 3,9 h 5.4921875 c -0.020598,0.075499 -0.053816,0.1441171 -0.070312,0.2226562 -0.046,0.242 -0.082031,0.5081563 -0.082031,0.7851558 0,3.571 3.6503905,3.167969 3.6503905,3.167969 v 0.910157 c 0,0.368999 0.484016,0.241234 0.541016,0.990234 -0.242,0 -5.0566409,-0.138625 -5.0566409,3.109375 0,3.26 4.2499999,3.099609 4.2499999,3.099609 0,0 4.908203,0.2195 4.908203,-3.8125 0.002,-2.409 -2.810546,-3.193156 -2.810546,-4.160156 0,-0.979 2.11914,-1.266594 2.11914,-3.5585938 0,-1.002 -0.06858,-1.7156562 -0.517578,-2.2226562 -0.035,-0.035 -0.0578,-0.059031 -0.0918,-0.082031 -0.0077,-0.0072 -0.01755,-0.012441 -0.02539,-0.019531 h 0.123047 L 17.5,5.8769531 V 8 A 0.50005,0.50005 0 0 0 17.511719,8.1152344 1.0001,1.0001 0 0 0 17,9 v 1 a 1.0001,1.0001 0 1 0 2,0 V 9 A 1.0001,1.0001 0 0 0 18.488281,8.1152344 0.50005,0.50005 0 0 0 18.5,8 V 5.125 L 20,4 Z m 0.691406,3.0527344 c 0.287813,-0.013031 0.577516,0.056891 0.853516,0.2128906 0.207,0.104 0.401219,0.2525 0.574219,0.4375 0.357,0.357 0.657359,0.8753281 0.818359,1.4863281 0.38,1.4509999 -0.113672,2.8463279 -1.138672,3.1113279 -1.014,0.287 -2.144156,-0.659609 -2.535156,-2.099609 -0.173,-0.7020001 -0.149125,-1.3808751 0.04687,-1.9218751 0.0018,-0.00698 0.0059,-0.012601 0.0078,-0.019531 0.0034,-0.00165 0.0085,-0.00623 0.01172,-0.00781 0.05618,-0.2138935 0.148021,-0.4057863 0.259766,-0.5644531 0.205544,-0.3002835 0.476633,-0.5036648 0.814453,-0.59375 0.095,-0.023 0.191172,-0.036672 0.287109,-0.041016 z m 0.390625,8.6328126 c 1.693,-0.127 3.134282,0.805266 3.238281,2.072265 0.07,1.256001 -1.2325,2.373282 -2.9375,2.488282 -1.692999,0.115 -3.1553276,-0.804547 -3.2363276,-2.060547 -0.081,-1.267 1.2305466,-2.373 2.9355466,-2.5 z"
       id="path1"
       style="stroke:none;stroke-width:0;stroke-dasharray:none" />
  </g>
</svg>
