<?xml version="1.0" encoding="iso-8859-1"?>
<!-- Generator: Adobe Illustrator 19.0.0, SVG Export Plug-In . SVG Version: 6.00 Build 0)  -->
<svg version="1.1" id="Layer_1" xmlns="http://www.w3.org/2000/svg" xmlns:xlink="http://www.w3.org/1999/xlink" x="0px" y="0px"
	 viewBox="0 0 512 512" style="enable-background:new 0 0 512 512;" xml:space="preserve">
<g>
	<g>
		<path d="M305.101,329.634l103.876-23.467c24.141-5.914,38.144-26.189,34.057-49.306c-4.053-22.989-24.098-37.205-49.024-34.671
			l-88.448,11.307c-0.068,0.009-6.511,0.99-7.219-1.98c0.375-0.922,3.541-2.731,6.443-3.388l70.059-15.829
			c24.141-5.914,38.135-26.189,34.057-49.306c-4.053-22.989-24.107-37.248-49.024-34.671l-54.076,6.912
			c-2.85,0.435-6.451,0.111-7.356-3.814c-0.307-1.331-0.034-1.732,0.077-1.903c1.041-1.527,4.736-2.825,7.603-3.268l34.586-7.817
			c24.141-5.914,38.135-26.189,34.057-49.306c-4.053-22.989-24.115-37.231-49.024-34.671l-27.537,3.516
			C295.006,15.411,278.144,0,255.992,0c-21.88,0-38.656,15.198-42.146,37.999l-27.742-3.541
			c-24.687-2.697-44.8,11.571-48.879,34.697c-4.062,22.989,9.933,43.255,34.014,49.297l34.176,8.533
			c3.354,0.998,7.595,3.567,8.081,4.676c-0.469,2.338-1.323,2.901-1.604,3.081c-1.451,0.973-4.173,0.819-5.146,0.623
			c-0.29-0.068-0.58-0.119-0.879-0.162l-53.897-6.878c-24.704-2.654-44.8,11.563-48.879,34.688
			c-4.062,22.997,9.933,43.264,34.21,49.348l68.523,15.479c0.375,0.077,0.811,0.145,1.195,0.179
			c2.893,0.247,6.187,1.536,6.699,2.227c0,0,0.034,0.256-0.119,0.87c-0.666,2.594-2.893,3.456-6.554,2.543
			c-0.384-0.102-0.777-0.179-1.178-0.23l-88.03-11.238c-24.713-2.671-44.792,11.563-48.879,34.688
			c-4.062,22.997,9.933,43.264,34.21,49.348l103.953,23.467c1.34,0.23,5.035,1.502,6.229,3.302c0.196,0.29,0.64,0.956,0.196,2.842
			c-0.307,1.314-1.246,5.316-7.68,4.164l-53.897-6.878c-24.704-2.697-44.8,11.571-48.879,34.688
			c-4.062,22.997,9.933,43.264,34.21,49.348l58.402,13.184c27.503,6.212,42.88,9.685,51.755,11.409v61.713
			c0,4.71,3.823,8.533,8.533,8.533c4.71,0,8.533-3.823,8.533-8.533V59.733c0-4.71-3.823-8.533-8.533-8.533
			c-4.71,0-8.533,3.823-8.533,8.533v364.8c-28.493-6.426-106.206-23.979-106.206-23.979c-15.479-3.874-23.859-15.565-21.35-29.773
			c2.483-14.08,14.583-22.4,30.054-20.71l53.035,6.741c8.875,1.929,23.433-1.058,27.179-17.092
			c1.382-5.931,0.486-11.52-2.594-16.162c-5.598-8.431-16.375-10.479-17.135-10.607l-103.322-23.33
			c-15.479-3.874-23.859-15.565-21.35-29.773c2.483-14.08,14.601-22.409,30.054-20.71l87.433,11.153
			c2.526,0.58,10.547,1.894,17.596-2.193c4.608-2.679,7.817-7.083,9.267-12.732c1.801-6.972-0.358-11.964-2.475-14.925
			c-5.316-7.398-15.317-9.037-18.603-9.378l-67.789-15.309c-15.479-3.874-23.859-15.565-21.35-29.773
			c2.483-14.08,14.583-22.417,30.054-20.71l53.427,6.827c2.338,0.444,10.581,1.596,17.707-2.97
			c3.302-2.133,7.578-6.306,9.139-14.123c2.398-12.032-8.294-20.907-20.309-24.474l-34.534-8.644
			c-15.479-3.874-23.859-15.565-21.35-29.773c2.483-14.08,14.609-22.434,30.054-20.71l36.693,4.685
			c2.415,0.316,4.873-0.444,6.716-2.065c1.843-1.613,2.893-3.951,2.893-6.4l-0.017-4.352c1.135-15.915,11.187-26.206,25.617-26.206
			c14.293,0,24.593,10.513,25.6,25.6v4.941c0,2.449,1.058,4.787,2.893,6.409c1.835,1.613,4.224,2.364,6.724,2.057l36.497-4.659
			c15.812-1.655,27.742,6.468,30.251,20.685c2.483,14.071-6.076,26.027-21.163,29.73l-33.664,7.637
			c-1.289,0.171-12.783,1.903-18.62,10.308c-3.081,4.429-4.011,9.779-2.705,15.471c3.499,15.198,17.946,18.372,26.47,16.879
			l53.564-6.844c15.812-1.664,27.742,6.468,30.251,20.685c2.483,14.071-6.076,26.027-21.163,29.73l-69.82,15.761
			c-1.988,0.435-12.211,2.97-17.195,10.948c-2.543,4.062-3.26,8.755-2.074,13.585c3.174,12.911,16.213,16.461,26.436,14.353
			l87.697-11.196c15.821-1.664,27.742,6.468,30.251,20.685c2.483,14.071-6.076,26.027-21.163,29.73l-103.364,23.347
			c-1.203,0.222-11.93,2.381-17.417,10.803c-2.995,4.591-3.849,10.086-2.458,15.881c3.729,15.514,18.099,18.79,26.453,17.323
			l53.564-6.835c15.812-1.647,27.742,6.468,30.251,20.685c2.483,14.071-6.076,26.027-21.163,29.73l-82.688,18.671
			c-4.591,1.041-7.475,5.606-6.443,10.206c1.05,4.599,5.632,7.458,10.214,6.443l82.833-18.714
			c24.141-5.914,38.135-26.189,34.057-49.306c-4.053-22.98-24.004-37.231-49.024-34.671l-54.076,6.904
			c-4.045,0.614-6.528-0.879-7.373-4.42c-0.41-1.698-0.026-2.295,0.137-2.56C299.572,331.469,302.84,330.086,305.101,329.634z"/>
	</g>
</g>
<g>
</g>
<g>
</g>
<g>
</g>
<g>
</g>
<g>
</g>
<g>
</g>
<g>
</g>
<g>
</g>
<g>
</g>
<g>
</g>
<g>
</g>
<g>
</g>
<g>
</g>
<g>
</g>
<g>
</g>
</svg>
